<svg xmlns="http://www.w3.org/2000/svg" width="146" height="146"><rect id="backgroundrect" width="100%" height="100%" fill="none"/><style>.st0{fill:#0d0a02}</style><g class="currentLayer"><path d="M143.8 72.8c0 39.1-31.7 70.9-70.9 70.9S2 112 2 72.8 33.7 1.9 72.9 1.9c39.1.1 70.9 31.8 70.9 70.9z" id="svg_12" fill="#ecb14a"/><path class="st0" d="M19.2 119.1c13 15.1 32.2 24.6 53.7 24.6s40.7-9.5 53.7-24.6c-4.5.6-18.8 2.1-53.7 2.1-35.8 0-49.6-1.5-53.7-2.1zM142 88.6c1.2-5.1 1.8-10.4 1.8-15.8 0-6.2-.8-12.2-2.3-17.9-7-.2-29.1-.6-68.3-.6-39.6 0-62.1.4-68.9.6C2.8 60.6 2 66.6 2 72.8c0 5.5.6 10.9 1.8 16 8.4.1 41.5.6 70 .6 28.9.1 60.8-.6 68.2-.8zm-16-62.7C113 11.2 94 2 72.9 2c-21.2 0-40.2 9.3-53.1 24 4.8-.6 19.1-2.1 53-2.1 33.7 0 48.1 1.3 53.2 2z" id="svg_13"/><path class="st0" d="M143.7 72.8c0 39.1-31.7 70.9-70.9 70.9-39.1 0-70.9-31.7-70.9-70.9 0-39.1 31.7-70.9 70.9-70.9 39.2.1 70.9 31.8 70.9 70.9zM72.9 0C32.6 0 0 32.6 0 72.9c0 40.2 32.6 72.9 72.9 72.9 40.2 0 72.9-32.6 72.9-72.9C145.8 32.6 113.1 0 72.9 0z" id="svg_14"/></g></svg>