<svg xmlns="http://www.w3.org/2000/svg" xmlns:xlink="http://www.w3.org/1999/xlink" version="1.1" enable-background="new 0 0 304 55" xml:space="preserve" width="54" height="54"><rect id="backgroundrect" width="100%" height="100%" x="0" y="0" fill="none" stroke="none"/>
<title>megafon-logo-green</title>
<desc>Created with Sketch.</desc>

<g class="currentLayer" style=""><title>Layer 1</title><g id="Page-1" class="">
	<g id="megafon-logo-green">
		<g id="Group">
			<path id="Shape" fill="#00B956" d="M30.3,0.09999997615814216 v27.8 l0,0 l0,0 c0,1.3 -1,2.2 -2.2,2.2 h-3.3 l0,0 c-0.2,0 -0.30000000000000004,0.2 -0.30000000000000004,0.30000000000000004 v23.3 c0.8,0 1.6,0.2 2.5,0.2 c14.9,0 27,-12.1 27,-27 C54,13.199999976158143 43.7,1.699999976158142 30.3,0.09999997615814216 zM29.7,41.69999997615814 c-1.9,0 -3.3,-1.6 -3.3,-3.3 c0,-1.9 1.6,-3.3 3.3,-3.3 c1.9,0 3.3,1.6 3.3,3.3 C33.2,40.19999997615814 31.6,41.69999997615814 29.7,41.69999997615814 zM37.6,41.69999997615814 c-1.9,0 -3.3,-1.6 -3.3,-3.3 c0,-1.9 1.6,-3.3 3.3,-3.3 c1.9,0 3.3,1.6 3.3,3.3 S39.6,41.69999997615814 37.6,41.69999997615814 zM45.6,41.69999997615814 c-1.9,0 -3.3,-1.6 -3.3,-3.3 c0,-1.9 1.6,-3.3 3.3,-3.3 c1.9,0 3.3,1.6 3.3,3.3 S47.5,41.69999997615814 45.6,41.69999997615814 z"/>
			<path id="Shape_1_" fill="#00B956" d="M27,-2.3841857821338408e-8 c-14.9,0 -27,12.1 -27,27 c0,13.1 9.1,23.8 21.3,26.3 V28.999999976158144 l0,0 c0,-1.1 1,-2 2,-2.2 l0,0 h1.1 h2.2 c0.2,0 0.30000000000000004,-0.2 0.30000000000000004,-0.30000000000000004 L27,-2.3841857821338408e-8 L27,-2.3841857821338408e-8 zM21.8,22.199999976158143 c-1.9,0 -3.3,-1.6 -3.3,-3.3 c0,-1.9 1.6,-3.3 3.3,-3.3 c1.9,0 3.3,1.6 3.3,3.3 S23.6,22.199999976158143 21.8,22.199999976158143 z"/>
		</g>
	</g>
</g></g></svg>