<svg xmlns="http://www.w3.org/2000/svg" xmlns:xlink="http://www.w3.org/1999/xlink" enable-background="new 0 0 98 35" xml:space="preserve" width="35" height="35"><rect id="backgroundrect" width="100%" height="100%" x="0" y="0" fill="none" stroke="none"/>
	
<g class="currentLayer" style=""><title>Layer 1</title><path fill="#e30613" d="M35,31.5 c0,1.9 -1.6,3.5 -3.5,3.5 h-28 C1.6,35 0,33.4 0,31.5 v-28 C0,1.6 1.6,0 3.5,0 l28,0 C33.4,0 35,1.6 35,3.5 V31.5 zM17.5,30.4 c6.5,0 9.5,-5.2 9.5,-10.4 c0,-7.3 -5,-15.5 -9.5,-15.5 C13.1,4.5 8,12.8 8,20.1 C8,25.2 10.9,30.4 17.5,30.4 " id="svg_1" class=""/></g></svg>