<svg xmlns="http://www.w3.org/2000/svg" width="285" height="543"><rect width="100%" height="100%" fill="none"/><g class="currentLayer"><g><path d="M90.7 413.036l10.1-3.7 20.9-104.6-9.3.4zM83.1 415.736l7.6-2.7 21.7-107.9-7.5 2.8z"/><path d="M93.5 400.236l-10.4 15.5 17.7-6.4zM112.4 305.136l9.3-.4-74.8-19.2-5 2.4-19.6-1.1 82.6 21.1zM64.6 258.636h-1.9c-9.1.7-9.9 6.9-8.9 13.2 1.1 6 7.9 17.4 7.9 17.4l-1.4-.5s-6.3-10.5-7.5-16.8c-.6-3.3-.6-6.7.7-9.4 1.4-2.7 4.1-4.6 8.9-4.9.6 0 1.3-.1 1.9 0 16.5.1 31.5 18.6 38.7 42.3l-1.1-.3c-7.1-23.4-21.6-40.8-37.3-41z"/><path d="M87 307.536c0-9.3-.6-17.3-1.8-23.9-2.8-15.1-8.7-23-19.7-24.6-1.8-.3-3.4-.3-4.9-.2-10.1.7-15.7 8.9-19.3 16.6-3.7 7.7-6.6 21.2-6.6 21.2l-1-.3s5.7-37.1 26.8-38.6c1.6-.1 3.3 0 5.1.2 11.5 1.6 17.9 10.4 20.6 25.7 1.2 6.7 1.8 14.8 1.8 24.1l-1-.2z"/><path d="M22.3 286.836L0 390.236l63.4 19.5 19.7 6 21.8-107.8zM193.5 122.536c0-.2.1-.5.2-.6l1.3.6s2 49.4 23.1 78.3l-2.3 1.7c-22.3-30.7-22.2-79.4-22.3-80zM202.1 61.736s.2 7.3 6.9 11.9c-6.7-5.8-6.2-14.5-7.4-21.3-1.6-8.8-3.2-13.4-3.7-22.3 1.9 13.5 6.2 14 8.1 28.7 0 0 .8-3.9-5.1-21.8-3.2-9.7-3.7-22-9.1-29.3-5.4-7.4-15.3-9-19.2-6.6l15.6 14.7s3.6 4.4 4.3 14.1c.2 3.4-.2 5.9-.9 8.6 0 0-8.8 19.8-11 21-.2.5-14.9 36.4 14.4 25.6 15.6 19.9 22.1 6.1 22.1 6.1-5.6 0-14.5-12.2-15-29.4z"/><path d="M158.9 81.936c-2.5 8-15.3 4.1-15.3 4.1s-13.7 11.6-8.2 21.4c5.4 9.7 16.8 21.7 16.8 21.7l5.9-3.7 36.5.4 5.2-38.1-7.5-3.3s-9 2.7-10.8-1.3c-1.8-4 .5-20.8 2.3-21.7 1.8-.8 5-2.3 5-2.3l-31.5-17.1c-.1.1 4.1 31.9 1.6 39.9zM214.6 221.336c-.3 3.6 2 6.7 5.1 6.9l35.1 4.7c6 .2 12.5-4.6 12.7-8.2l1.4-19.2c.3-3.6-2-6.7-5.1-6.9l-40.8-2.6c-3.1-.2-7.4 1.1-10.4 2.7l2 22.6z"/><path d="M255.3 231.636h-.3l-35.1-4.7c-1.2-.1-2.2-.7-2.9-1.7-.8-1-1.1-2.4-1-3.8v-.2l-1.9-21.6c2.7-1.3 5.9-2.1 8.2-2.1h.6l40.8 2.6c1.1.1 2.1.7 2.8 1.7.8 1 1.1 2.4 1 3.8l-1.2 19.1c-.2 2.6-5.6 6.9-11 6.9z"/><path d="M208 223.436c-.3 3.6 2 6.7 5.1 6.9l41.7 2.6c3.1.2 5.8-2.5 6.1-6.1l1.4-19.2c.3-3.6-2-6.7-5.1-6.9l-41.7-2.6c-3.1-.2-5.8 2.5-6.1 6.1l-1.4 19.2z"/><path d="M255.2 231.636h-.3l-41.8-2.6c-1.1-.1-2.1-.7-2.8-1.7-.8-1-1.1-2.4-1-3.8l1.4-19.2c.2-2.7 2.1-4.9 4.4-4.9h.3l41.8 2.6c1.1.1 2.1.7 2.8 1.7.8 1 1.1 2.4 1 3.8l-1.4 19.2c-.2 2.8-2.1 4.9-4.4 4.9zM277.2 169.936l-7.1 3.1 6.2-4.2s3.2-3 3.9-3.6c.7-.6.4-2 .4-2l-5.3 3.2-6.6 4-6.1 6.2 2.5-5.7 4.1-3.7s3.2-2.4 4.3-3.2c1.1-.8 1.2-2.9 1.2-2.9l-6.3 3.3-6.9 5.9-1.7 2.4c.7 3.4 1.3 6.9 1.8 10.5l6.4-5 4.7-2s2.1 0 3.9.1c1.8 0 3.3-1.7 3.3-1.7l-3.5.2-4.4-.2 3.8-2.2s3.9-1.6 4.9-2c1-.4 1-1.9 1-1.9l-4.5 1.4z"/><path d="M273.3 189.636c-2.3-.5-4-.9-4-.9l-6.9.1-2.8.1-.6-.4-.6-.4.5-.8c-.4-3.8-1-7.4-1.6-11l-3.9 5.6-5.1 4.8s-9.7-2.3-22.3-7.2c-12.6-4.9-35.6-18.2-35.6-18.2s1.3-12.7 7-25.4c5.1-11.5 6.4-20.3 6.4-20.3s6.4-19.6 4.5-27.1c-.1-.4-.9-2.4-3-3.4-4.9-2.1-12.8-.6-12.8-.6s-10.2 39.5-14.2 53c-6 20.1-2 35.8-2 35.8l69.9 19.1s.8 1.2 2.1 1.3c1.3 0 11.3.2 11.3.2h.1l3.3-.6 5.9-1.1 6.7.6c-.2-.2 0-2.6-2.3-3.2zM273.6 161.436c-.9.6-1.6 1.3-1.4 1.6.2.3 1.1 0 2.1-.5 1-.6 1.6-1.3 1.4-1.6-.2-.4-1.1-.1-2.1.5zM279.4 163.336c-1 .6-1.6 1.3-1.4 1.6.2.3 1.1 0 2.1-.5 1-.6 1.6-1.3 1.4-1.6-.2-.3-1.1 0-2.1.5zM280.7 168.436c-1 .3-1.7.7-1.6 1 .1.2.9.2 1.9-.1 1-.3 1.7-.7 1.6-1-.1-.3-1-.2-1.9.1zM279 174.236c-1 .1-1.8.3-1.8.5s.9.4 1.9.3c1-.1 1.8-.3 1.8-.5-.1-.2-.9-.3-1.9-.3z"/><path d="M269.6 191.536c.1-.4 1.7-.5 3.6-.1 1.9.3 3.4.9 3.3 1.3-.1.4-1.7.5-3.6.1-1.9-.4-3.4-1-3.3-1.3zM261.7 183.236c-.5-3.6-1-7.1-1.8-10.5-13.4-57.9-64.1-88.6-64.1-88.6s-1.9.1-3.2.4c0 0 52.8 29.4 64.7 91.9.7 3.6 1.2 7.2 1.6 11 0 .4.1.8.1 1.2l.6.4 2.8-.1c-.2-1.9-.4-3.8-.7-5.7z"/><path d="M259.1 188.636c0-.4-.1-.8-.1-1.2l-.5.8.6.4zM259.7 197.436c0 1.6 3.5 2.2 3.4 5.8l3.2.1c-.1-3.9-3.1-4.1-3.2-5.6-.1-1.9-.2-3-.3-4.5l-3.3.5c.1 1.3.1 2.1.2 3.7zM78.5 368.236l4-2.4 10.8-85.4-4 2.3z"/><path d="M83.6 357.036l-5.1 11.2 9.4-5.5zM93.3 280.436l5-.9-41.2-8.2-2.6 1.9-10.7.5 45.5 9zM64.9 275.436z"/><path d="M79.4 285.236c.1-5.5-.1-10.1-.7-13.9-1.4-8.6-4.5-12.6-10.5-12.5-.9 0-1.8.1-2.7.4-5.5 1.4-8.9 6.6-11 11.5-2.1 4.9-2.7 9.4-2.7 9.4l-.5-.1s2.7-18.5 14.2-21.4c.9-.2 1.8-.3 2.8-.4 6.2-.1 9.6 4.4 11 13.1.6 3.8.8 8.5.8 14l-.7-.1z"/><path d="M67.7 258.836c-.4.1-.7.1-1 .2-4.9 1.3-5.5 4.8-5 8.2.5 3.2 2.3 6.4 2.3 6.4l-.7-.1s-1.6-2.8-2.1-6.1c-.3-1.8-.3-3.7.5-5.3.8-1.6 2.3-3 4.9-3.6.3-.1.7-.2 1.1-.2 8.9-1.5 16.8 7.2 20.3 19.7l-.6-.1c-3.5-12.5-11.1-20.5-19.7-19.1zM157 236.736s8.2 37 23.4 52.1c21.3 21.3 34.5 56.6 34.5 56.6s-2.5 23.7-2.6 27.1c-.1 3.5 1.3 26.5 6.9 40.4 6.8 17 22.8 57.8 22.3 69.4-5.2 15.4-.6 22.3-.6 22.3h8s4.3 12.7 8.6 28.7l20.4 5.3-5.3-9.4s-11.8-39.5-15.8-48.7c-13.1-31-20.1-112.7-20.1-112.7 0-8.9 2.9-12.3 2.9-19.1 0-4.7-.6-6.8-2.3-10.5-2.9-6.2-4.7-17.5-9.4-34.8-9.2-34.2-28.9-72.4-28.9-72.4s-11.3-24.6-36.6-1.8c-.1.1-5.4 6.3-5.4 7.5z"/><path d="M187 187.436s-1.8 2.6 5.2 23.7c8.6 26 5.3 48.3 5.3 48.3s-34.6 77.2-35.7 81.1c-1.6 5.4 0 6.4-.9 11.8-.9 5.2-7.6 13.2-9 17.8-1.3 4.6-9.1 31.6-9.1 31.6s-11.3 39-12.6 46.4c-5.9 33.7 0 47.6 1.7 55 2.6 11.6 3.5 16.8 3.5 16.8l1 8.7-14.2-5.4s-.8-5-1.1-14.2c-.3-9-4.5-15.6-4.5-15.6l-7.1-2.7s-1 .1 1.5-6.9c2.4-7 5.2-12.2 5.2-12.2s2.5-15.5 3.4-34c.8-16.9 1.3-39.2 1.6-45.2.8-12.7 13-24 17.1-31.5 3.7-6.7 5.3-22.4 5.3-22.4s13.9-87.9 16-112.5c3.1-35.4 27.4-38.6 27.4-38.6z"/><path d="M122.5 501.636c-1.5-4.8-6-10.7-7.3-14.8-2.5-8-.5-12.3-.5-12.3s-6.1 8-7.4 16.1c0 0 5.1 4 4.7 27.3l1.1.6 1-.4-.5-22.9s6.6 4.9 7.2 13.8c.3 4.2-.1 8.5-.5 15.1 7.9 5.5 17.8 7.6 25.7 4.8 0 0 .3-1.4-1.4-2.8-1.4-1.1-6.3-1.3-8.9-3.9 0 0-.7 4.1-6.8-1.6-2.2-2-4.1-10.4-4.1-10.4s-.9-3.7-2.3-8.6zM241.4 482.436s-3.6 6.5-3.6 17.7c0 0 7.8 8.2 9.1 28.3l1.2.7.6-.2-3.1-23.5s.7.8 2.3 2.3c1.5 1.5 4.4 7.8 7.7 28.3 0 0 6.5 8.4 29.4 6.3 0 0 .5-2-.8-3.3-1.9-1.9-8.6-3.3-11.6-9.6 0 0 0 3-1.5 3-1.8 0-5.9-.5-11.1-4-8-5.4-5.7-20.1-11.5-28.3-6.1-8.4-7.1-17.7-7.1-17.7zM192.3 209.136s1.2-10.1.7-18.2c-.6-8.7-.6-12 1.6-24.7 2.8-16 3.3-25.6 3.7-29.2 0 0 7.7-3.8 8.8-12.1 1-7.3-2.7-12.1-8.6-15.7 0 0-4.7-1.2-1.9-9.7 3.6-10.9-1.7-15.4-1.7-15.4s-.3.1-1.1.2-1.5.2-1.5.2 7.1 3.2 2.3 15.6c-3.1 8.1-5.5 19.7-5.5 19.7-10.4-8.6-19.2-5.9-33.4-24.4-3-3.9-9.1-8.7-9.1-8.7l-3.2-.7c19.7 16.7 16.7 27.1 12.4 33.3-4.6 6.6-3.8 9.8-3.8 9.8s8.3 7 12.7 21.6c6.8 22-4.2 29-4.2 29s-23.8 15.7-15.8 41.4c22.3 71.4-31 78.8-31 78.8s13.7.8 24.2 3.6c11.3 3.1 26.1 7.2 29.5 1.8 6.7-10.6 56.4 33.6 69.1-8.7 1.4-4.7 3.2-3.4 3.2-3.4s-14.1-4.7-15-7.1c-12.7-33.7-32.4-77-32.4-77z"/><path d="M175.7 137.336c-1.2-4.9-11.8.2-17.5-15.9-2.7 4-.9 6.1-3.7 6.6 5.3 3.7 8.7 6.6 13.5 18.5 1.8 4.5 7 14.6 6.3 18.6-.7 4-2.3 8.6-16.4 25.2-9 10.7-8.1 19.2-8.6 30.3-.8 18.1 44.4 64.6 44.4 64.6s15.9 15.8-13 11c-10-.1 32.3 21.3 32.3 11.7.1-21.1-77.5-84.9-58.1-108.8 14.5-17.8 24.3-18.9 21.2-33-6.2-27.9.7-23.9-.4-28.8zM128.3 85.736c2.3-.9 5.6-2.1 15.3.3 0 0-.1 22.5-1.4 27.1-9.9 34.8-7.7 66.9-7.7 66.9s-4.9 12.5-29.8 49.7c-4.8 7.1-4.9 18.3-4.9 18.3l-6.3 8.3-3.6 6.8-1.8 5.1s-2.3-2.9-1.5-5c.8-2.1 3.1-8.3 3.1-8.3l2.1-3.6-5.7 2.7-4.8 1.2-8.1.8-1.8 3.8s2 1.4 2.1 3.3c.1 1.6-3.2-.8-3.2-.8l-2.3-2.4 2.9-7 10.3-1.7-11.3 1-3.3 5.5s1.1 5-.3 5.5c-1.5.5-1.6-2.7-1.6-2.7l-1.1-4 4.2-6.8 11.2-2.1-10.5 1.2-6.7 3.1s-2.3.6-3.8.9c-1.5.4-1.9-1.1-1.9-1.1l5-1.5 7.1-4.1 9.1-1.3-11.1-.2s-3.1-.4-5.1-.6c-2-.2-2.4-1.2-2.4-1.2l7.4.1 10.4-.2 14.5-5 4.3-6.5s7.2-11.9 15.3-32.3c5.8-14.5 12.2-27.8 12.2-27.8s.5-40.7.4-46.3c-.1-5.5-3.2-35.7 5.1-39.1z"/><path d="M89.8 262.636c.4.1.3 1.6-.2 3.2-.5 1.7-1.3 2.9-1.7 2.8-.4-.1-.3-1.6.2-3.2.6-1.6 1.3-2.9 1.7-2.8zM72.5 262.536c-.9-.7-1.8-1-2-.7-.2.3.4 1.1 1.3 1.7.9.7 1.8 1 2 .7.1-.3-.4-1-1.3-1.7zM66.5 261.936c-.4-1-1-1.8-1.4-1.6-.3.1-.2 1.1.2 2.1s1 1.8 1.3 1.6c.4-.1.3-1.1-.1-2.1zM57.4 251.036c-1 .3-1.7.8-1.6 1.1.1.3 1 .2 2-.1 1-.3 1.7-.8 1.6-1.1-.1-.3-1-.3-2 .1zM60 242.436c-.8 0-1.5.1-1.5.3 0 .2.7.3 1.5.3s1.5-.1 1.5-.3c0-.1-.6-.3-1.5-.3zM37.9 317.236l-5.3 39 35.1 9.1c-8.3-22.9-19.2-43.2-29.8-48.1z"/><path d="M37.9 317.236c10.7 4.9 21.6 25.2 29.7 48.1l10.9 2.8 4.6-36.2c-9.1-8.4-23.3-18.6-44.8-18l-.4 3.3zM88.2 291.836c-18.9-5.1-36.8 6.3-48 8.7l-.7 5.3c17.9 1.2 34.9 1.3 46.2 6.6l2.5-20.6z"/><path d="M38.3 314.136c21.5-.7 35.7 9.5 44.8 18l1.1-8.3c-14-12.1-31.1-12.8-45.2-14.6l-.7 4.9z"/><path d="M39.4 305.836l-.5 3.3c14.1 1.7 31.2 2.5 45.2 14.6l1.4-11.3c-11.1-5.3-28.2-5.4-46.1-6.6zM88.2 291.836l1.1-9-45.5-9-3.7 26.8c11.3-2.6 29.2-13.9 48.1-8.8z"/><ellipse transform="rotate(-22.377 146.876 -81.292)" cx="147.915" cy="224.877" rx="1" ry="1.3"/><path d="M161.6 40.836c2.1 6.6 4.7 12.6 10.1 16 4.6 2.9 13.2 3.8 17.2 2.5 2.2-.7 2.8-2 4.6-6.4 1.9-4.7 2.9-11 3.2-14.6.2-3.3-2.3-7-2.3-7-.1-3.2-1.6-9.1-1.6-9.1-4-12.3-12.1-14.8-20.8-12-8.8 2.9-14.4 18.3-10.4 30.6z"/><path d="M193.9 41.536s2.4-1.1 2.7-2.5c.3-1.3-.3-3.8-.3-3.8s1.1 3.9-2.4 6.3zM194 31.136s.5-8-3.7-6.8c-3.5 1.1-6 4.1-6 4.1s0 2.8.6 5.2c1.1-1 1.9-2.1 4.2-2.8 2.3-.6 4.9.3 4.9.3zM176.5 35.636c.3-2.4-.5-4.8-.5-4.8s-5.3-.9-8.3-.6c-3.3.3-4.1 3.2-4.2 4-.2 1 .5 3.7 2.5 4.1 2.6-1.4 6.3-3.4 10.5-2.7zM171.8 47.636s-6.1 1.1-8.2-6.2l1.1 4.7s1.1 2.8 7.1 1.5z"/><path d="M176 30.836s-2 0-3.5-.1c-2.3 0-5.8 0-6.8.4-1.5.6-2.2 3.1-2.2 3.1s.4-3.3 2.5-4c2.1-.7 7.8-.8 7.8-.8s1.4.1 2.2 1.4zM184.3 28.536s1.2-.9 2.7-1.8c1.5-1 3.7-2.2 4.4-2.3 1.4-.2 2.1 1.8 2.1 1.8s-.4-2.8-2.3-2.4c-1.9.3-5.5 2.3-5.5 2.3s-1.3.8-1.4 2.4zM176.5 35.636s-3.4-.2-10.5 2.7c0 0 .2-.9.6-1.9.4-1.2 1.3-3 4-3.9 4.2-1.4 4 2.6 5.9 3.1zM184.9 33.736c1.7-1.2 5.2-2.2 9.1-2.6 0 0-.5-.6-.8-1.2-.7-1.3-1.8-2.8-4.5-1.9-3.9 1.4-2.5 4.5-3.8 5.7z"/><g><path d="M190 29.936c-.1-.3-.4-.6-.6-.8.6-.1 1.2.1 1.6.3.8.5 1 1.5 1 1.5-.5.1-.9.1-1.4.2-.3 0-.6.1-.8.2.2-.5.3-1 .2-1.4zM187.5 31.836c-1.1.4-1.5.7-1.5.7.2-.5.4-.7.8-1.5.1.3.4.6.7.8z"/><path d="M187.5 31.836c-.3-.2-.6-.5-.8-.8.2-.4.4-.7.7-1 .4-.4 1-.8 1.9-.9.2.2.5.5.6.8.1.5.1.9-.1 1.3-.5.1-.9.2-1.2.3-.4.1-.8.2-1.1.3z"/><path d="M187.5 31.836c-.3-.2-.6-.5-.8-.8.2-.4.4-.7.7-1 .4-.4 1-.8 1.9-.9.2.2.5.5.6.8.1.5.1.9-.1 1.3-.5.1-.9.2-1.2.3-.4.1-.8.2-1.1.3z"/></g><path d="M187.8 30.836c.2.3.7.4 1 .1.3-.2.4-.7.1-1-.2-.3-.7-.4-1-.1-.3.2-.4.7-.1 1z"/><g><path d="M172.2 34.436c-.1-.4-.3-.7-.6-1 .6-.2 1.2-.2 1.6-.1 1 .3 1.4 1.4 1.5 1.8 0 0-.5 0-1.6.2-.3.1-.7.1-1 .2.1-.3.2-.7.1-1.1zM169.8 36.236c-.6.2-1.1.4-1.8.7 0 0 .2-.8 1-1.7.1.5.4.8.8 1z"/><path d="M169.8 36.236c-.4-.2-.7-.6-.8-1 .2-.2.4-.5.7-.7.5-.4 1-.7 1.7-1 .1 0 .1 0 .2-.1.3.2.5.6.6 1 .1.4 0 .9-.2 1.2-.4.1-.9.2-1.4.4-.3.1-.5.1-.8.2z"/><path d="M169.8 36.236c-.4-.2-.7-.6-.8-1 .2-.2.4-.5.7-.7.5-.4 1-.7 1.7-1 .1 0 .1 0 .2-.1.3.2.5.6.6 1 .1.4 0 .9-.2 1.2-.4.1-.9.2-1.4.4-.3.1-.5.1-.8.2z"/></g><path d="M170 35.236c.2.3.7.4 1 .2.3-.2.4-.7.2-1-.2-.3-.7-.4-1-.2-.4.2-.5.6-.2 1z"/><path d="M170.6 34.736c.1.2-.1.4-.4.5-.3.1-.6.1-.6 0-.1-.2.1-.4.4-.5.2-.2.5-.2.6 0zM188.5 30.336c.1.1-.1.4-.3.5-.3.1-.5.1-.6 0-.1-.1.1-.4.3-.5.2-.1.5-.1.6 0zM191.5 47.136c.2.8-2.3 2.8-5.6 3.9s-6.7.8-6.9 0c-.2-.8 2.3-2.4 5.6-3.5 3.3-1.2 6.6-1.2 6.9-.4zM180.2 42.736c2.7-4.5 6-4.3 7-2.1.7 1.1-7.1 3.3-7 2.1z"/><path d="M179.7 51.736c4.3 1.9 9.2.9 11.4-3.1 1-1.8.7-1.9-1.1-1-.8.4-1.9 1.1-4 1.7-2.1.6-5.1 1.1-5.8 1.1-1.9.2-1.8.7-.5 1.3z"/><path d="M179 51.236s-1-.3-.2-1.1c.8-.7 2.9-3.1 3.4-3.7 1.1-1.4 1.8-1 2.7-1.3.9-.3 1.7-1 2.8-.3 1 .6 2.5 1.6 3.2 1.7 1 .2.8.9.7 1.1 0 0-.8.1-3.2-.4-1.3-.3-4.5.9-5.7 1.8-1.1.8-2.3 1.9-3.7 2.2zM189.3 53.236c.2.5-.7.5-2.1 1-1.4.5-2.1 1-2.3.5-.2-.5.4-1.5 1.8-1.9 1.4-.5 2.4-.1 2.6.4z"/><path d="M186.1 45.136c.7-.2 1.2-.1 1.2.1s-.5.1-1 .3c-.4.1-.9.4-1.3.6-.5.1-.8.1-1.2.2-.6.1-1.2.6-1.2.4 0-.1.4-.6 1-.8.4-.1 1-.1 1.4-.2.4-.2.7-.6 1.1-.6zM188.3 50.136c.1.4-.7 1.1-1.8 1.4-1.1.4-2.2.3-2.3-.1-.1-.4.9-.3 2.1-.7 1.1-.3 1.9-1 2-.6z"/><g><path d="M190 12.536l-17.5-11.5c-4.7-2.8-23.1 2.8-30.6 18.4-4.9 10.2-5.1 20.6-4.3 26.1 3.7 25.4 15.1 33.7 15.1 33.7s-7.3-8.5-8.9-19.3c15.6 28.2 21.8 44.4 10.2 43.7 0 0 8.9 2.5 12.9-2.4 1.1-1.3 3.2-3.8 2.4-10.6 4.8 15.1-1.9 23.9-1.9 23.9 8.2-7.4 7.9-33.5 2.5-57.3-2.5-11-7.3-15.6-6.6-21.3.6-4.5-.3-7.9 3-11.6 5.5-6.2 10.9-5.5 16.3-10.8 6.2.3 9.2 6.7 9.2 6.7l-1.8-7.7z"/></g><g><path d="M172.5 6.636c-19.7 4.5-15.6 28.8-15.6 28.8-1.4-19 14.8-24.7 18.7-25.5 3.9-.8 18.1-2.3 18.1 17.1 0 0 1.5-25.6-21.2-20.4z"/></g><g><path d="M82.5 365.836l5.4-3.1 5.1-40.9c-1.7-1.2-3.2-2.2-4.6-3l-5.9 47z"/><path d="M91.2 297.136l-2.7 21.7c1.4.8 2.9 1.8 4.6 3l2.9-23.1c-1.4-.5-3-1.1-4.8-1.6zM98.3 279.536l-5 .8-2.1 16.7c1.8.5 3.4 1.1 4.7 1.6l2.4-19.1z"/></g></g></g></svg>