<?xml version="1.0" encoding="utf-8"?>
<!-- Generator: Adobe Illustrator 19.0.1, SVG Export Plug-In . SVG Version: 6.00 Build 0)  -->
<svg version="1.1" id="图层_1" xmlns="http://www.w3.org/2000/svg" xmlns:xlink="http://www.w3.org/1999/xlink" x="0px" y="0px"
	 viewBox="0 0 50 50" style="enable-background:new 0 0 50 50;" xml:space="preserve">
<g>
	<g>
		<g>
			<g>
				<polygon points="-26.8,130.3 -16.7,126.6 4.2,22 -5.1,22.4 				"/>
				<polygon points="-34.4,133 -26.8,130.3 -5.1,22.4 -12.6,25.2 				"/>
				<polygon points="-24,117.5 -34.4,133 -16.7,126.6 				"/>
				<polygon points="-5.1,22.4 4.2,22 -70.6,2.8 -75.6,5.2 -95.2,4.1 -12.6,25.2 				"/>
			</g>
			<path d="M-52.9-24.1c-0.7,0-1.3,0-1.9,0l0,0c-9.1,0.7-9.9,6.9-8.9,13.2l0,0c1.1,6,7.9,17.4,7.9,17.4L-57.2,6
				c0,0-6.3-10.5-7.5-16.8l0,0c-0.6-3.3-0.6-6.7,0.7-9.4l0,0c1.4-2.7,4.1-4.6,8.9-4.9l0,0c0.6,0,1.3-0.1,1.9,0l0,0
				C-36.7-25-21.7-6.5-14.5,17.2l-1.1-0.3C-22.7-6.5-37.2-23.9-52.9-24.1L-52.9-24.1z"/>
			<path d="M-30.5,24.8c0-9.3-0.6-17.3-1.8-23.9l0,0c-2.8-15.1-8.7-23-19.7-24.6l0,0c-1.8-0.3-3.4-0.3-4.9-0.2l0,0
				c-10.1,0.7-15.7,8.9-19.3,16.6l0,0c-3.7,7.7-6.6,21.2-6.6,21.2l0,0l-1-0.3c0,0,5.7-37.1,26.8-38.6l0,0c1.6-0.1,3.3,0,5.1,0.2l0,0
				c11.5,1.6,17.9,10.4,20.6,25.7l0,0c1.2,6.7,1.8,14.8,1.8,24.1l0,0L-30.5,24.8L-30.5,24.8z"/>
		</g>
		<g>
			<g>
				<g>
					<polygon points="-95.2,4.1 -117.5,107.5 -54.1,127 -34.4,133 -12.6,25.2 					"/>
				</g>
			</g>
		</g>
	</g>
	<g>
		<path d="M76-160.2c0-0.2,0.1-0.5,0.2-0.6l0,0h0l1.3,0.6c0,0,2,49.4,23.1,78.3l0,0l-2.3,1.7C76-110.9,76.1-159.6,76-160.2L76-160.2
			z"/>
	</g>
	<g>
		<path d="M84.6-221c0,0,0.2,7.3,6.9,11.9c0,0,0,0,0,0c-6.7-5.8-6.2-14.5-7.4-21.3c-1.6-8.8-3.2-13.4-3.7-22.3
			c1.9,13.5,6.2,14,8.1,28.7c0,0,0.8-3.9-5.1-21.8c-3.2-9.7-3.7-22-9.1-29.3c-5.4-7.4-15.3-9-19.2-6.6L70.7-267
			c0,0,3.6,4.4,4.3,14.1c0.2,3.4-0.2,5.9-0.9,8.6c0,0-8.8,19.8-11,21c-0.2,0.5-14.9,36.4,14.4,25.6c15.6,19.9,22.1,6.1,22.1,6.1
			C94-191.6,85.1-203.8,84.6-221z"/>
	</g>
	<path d="M41.4-200.8c-2.5,8-15.3,4.1-15.3,4.1s-13.7,11.6-8.2,21.4c5.4,9.7,16.8,21.7,16.8,21.7l5.9-3.7l36.5,0.4l5.2-38.1
		l-7.5-3.3c0,0-9,2.7-10.8-1.3c-1.8-4,0.5-20.8,2.3-21.7c1.8-0.8,5-2.3,5-2.3l-31.5-17.1C39.7-240.6,43.9-208.8,41.4-200.8z"/>
	<path d="M97.1-61.4c-0.3,3.6,2,6.7,5.1,6.9l35.1,4.7c6,0.2,12.5-4.6,12.7-8.2l1.4-19.2c0.3-3.6-2-6.7-5.1-6.9l-40.8-2.6
		c-3.1-0.2-7.4,1.1-10.4,2.7L97.1-61.4z"/>
	<path d="M137.8-51.1c-0.1,0-0.2,0-0.3,0l-35.1-4.7c-1.2-0.1-2.2-0.7-2.9-1.7c-0.8-1-1.1-2.4-1-3.8l0-0.1l0-0.1l-1.9-21.6
		c2.7-1.3,5.9-2.1,8.2-2.1c0.2,0,0.4,0,0.6,0l40.8,2.6c1.1,0.1,2.1,0.7,2.8,1.7c0.8,1,1.1,2.4,1,3.8L148.8-58
		C148.6-55.4,143.2-51.1,137.8-51.1L137.8-51.1z"/>
	<path d="M90.5-59.3c-0.3,3.6,2,6.7,5.1,6.9l41.7,2.6c3.1,0.2,5.8-2.5,6.1-6.1l1.4-19.2c0.3-3.6-2-6.7-5.1-6.9L98-84.6
		c-3.1-0.2-5.8,2.5-6.1,6.1L90.5-59.3z"/>
	<path d="M137.7-51.1c-0.1,0-0.2,0-0.3,0l-41.8-2.6c-1.1-0.1-2.1-0.7-2.8-1.7c-0.8-1-1.1-2.4-1-3.8l1.4-19.2
		c0.2-2.7,2.1-4.9,4.4-4.9c0.1,0,0.2,0,0.3,0l41.8,2.6c1.1,0.1,2.1,0.7,2.8,1.7c0.8,1,1.1,2.4,1,3.8l-1.4,19.2
		C141.9-53.2,140-51.1,137.7-51.1L137.7-51.1z"/>
	<path d="M159.7-112.8l-7.1,3.1l6.2-4.2c0,0,3.2-3,3.9-3.6c0.7-0.6,0.4-2,0.4-2l-5.3,3.2l-6.6,4l-6.1,6.2l2.5-5.7l4.1-3.7
		c0,0,3.2-2.4,4.3-3.2c1.1-0.8,1.2-2.9,1.2-2.9l-6.3,3.3l-6.9,5.9l-1.7,2.4c0.7,3.4,1.3,6.9,1.8,10.5l6.4-5l4.7-2c0,0,2.1,0,3.9,0.1
		c1.8,0,3.3-1.7,3.3-1.7l-3.5,0.2l-4.4-0.2l3.8-2.2c0,0,3.9-1.6,4.9-2c1-0.4,1-1.9,1-1.9L159.7-112.8z"/>
	<g>
		<path d="M155.8-93.1c-2.3-0.5-4-0.9-4-0.9l-6.9,0.1l-2.8,0.1l-0.6-0.4l-0.6-0.4l0.5-0.8c-0.4-3.8-1-7.4-1.6-11l-3.9,5.6l-5.1,4.8
			c0,0-9.7-2.3-22.3-7.2c-12.6-4.9-35.6-18.2-35.6-18.2s1.3-12.7,7-25.4c5.1-11.5,6.4-20.3,6.4-20.3s6.4-19.6,4.5-27.1
			c-0.1-0.4-0.9-2.4-3-3.4c-4.9-2.1-12.8-0.6-12.8-0.6s-10.2,39.5-14.2,53c-6,20.1-2,35.8-2,35.8l69.9,19.1c0,0,0.8,1.2,2.1,1.3
			c1.3,0,11.3,0.2,11.3,0.2l0.1,0l3.3-0.6l5.9-1.1l6.7,0.6C157.9-90.1,158.1-92.5,155.8-93.1z"/>
	</g>
	<g>
		<path d="M156.1-121.3c-0.9,0.6-1.6,1.3-1.4,1.6c0.2,0.3,1.1,0,2.1-0.5c1-0.6,1.6-1.3,1.4-1.6C158-122.2,157.1-121.9,156.1-121.3z"
			/>
		<path d="M161.9-119.4c-1,0.6-1.6,1.3-1.4,1.6c0.2,0.3,1.1,0,2.1-0.5c1-0.6,1.6-1.3,1.4-1.6C163.8-120.2,162.9-119.9,161.9-119.4z"
			/>
		<path d="M163.2-114.3c-1,0.3-1.7,0.7-1.6,1c0.1,0.2,0.9,0.2,1.9-0.1c1-0.3,1.7-0.7,1.6-1C165-114.7,164.1-114.6,163.2-114.3z"/>
		<path d="M161.5-108.5c-1,0.1-1.8,0.3-1.8,0.5c0,0.2,0.9,0.4,1.9,0.3c1-0.1,1.8-0.3,1.8-0.5C163.3-108.4,162.5-108.5,161.5-108.5z"
			/>
		<path d="M152.1-91.2c0.1-0.4,1.7-0.5,3.6-0.1c1.9,0.3,3.4,0.9,3.3,1.3c-0.1,0.4-1.7,0.5-3.6,0.1C153.5-90.3,152-90.9,152.1-91.2z"
			/>
	</g>
	<g>
		<path d="M144.2-99.5c-0.5-3.6-1-7.1-1.8-10.5c-13.4-57.9-64.1-88.6-64.1-88.6s-1.9,0.1-3.2,0.4c0,0,52.8,29.4,64.7,91.9
			c0.7,3.6,1.2,7.2,1.6,11c0,0.4,0.1,0.8,0.1,1.2l0.6,0.4l2.8-0.1C144.7-95.7,144.5-97.6,144.2-99.5z"/>
	</g>
	<path d="M141.6-94.1c0-0.4-0.1-0.8-0.1-1.2l-0.5,0.8L141.6-94.1z"/>
	<path d="M142.2-85.3c0,1.6,3.5,2.2,3.4,5.8l3.2,0.1c-0.1-3.9-3.1-4.1-3.2-5.6c-0.1-1.9-0.2-3-0.3-4.5L142-89
		C142.1-87.7,142.1-86.9,142.2-85.3z"/>
	<g>
		<polygon points="-39,85.5 -35,83.1 -24.2,-2.3 -28.2,0 		"/>
		<polygon points="-33.9,74.3 -39,85.5 -29.6,80 		"/>
		<polygon points="-24.2,-2.3 -19.2,-3.2 -60.4,-11.4 -63,-9.5 -73.7,-9 -28.2,0 		"/>
	</g>
	<g>
		<path d="M-52.6-7.3L-52.6-7.3L-52.6-7.3L-52.6-7.3L-52.6-7.3L-52.6-7.3z"/>
	</g>
	<path d="M-38.1,2.5C-38-3-38.2-7.6-38.8-11.4l0,0C-40.2-20-43.3-24-49.3-23.9l0,0c-0.9,0-1.8,0.1-2.7,0.4l0,0
		c-5.5,1.4-8.9,6.6-11,11.5l0,0c-2.1,4.9-2.7,9.4-2.7,9.4l0,0l-0.5-0.1c0,0,2.7-18.5,14.2-21.4l0,0c0.9-0.2,1.8-0.3,2.8-0.4l0,0
		c6.2-0.1,9.6,4.4,11,13.1l0,0c0.6,3.8,0.8,8.5,0.8,14l0,0L-38.1,2.5L-38.1,2.5z"/>
	<path d="M-49.8-23.9c-0.4,0.1-0.7,0.1-1,0.2l0,0c-4.9,1.3-5.5,4.8-5,8.2l0,0c0.5,3.2,2.3,6.4,2.3,6.4l-0.7-0.1c0,0-1.6-2.8-2.1-6.1
		l0,0c-0.3-1.8-0.3-3.7,0.5-5.3l0,0c0.8-1.6,2.3-3,4.9-3.6l0,0c0.3-0.1,0.7-0.2,1.1-0.2l0,0c8.9-1.5,16.8,7.2,20.3,19.7l-0.6-0.1
		C-33.6-17.3-41.2-25.3-49.8-23.9L-49.8-23.9z"/>
	<path d="M39.5-46c0,0,8.2,37,23.4,52.1c21.3,21.3,34.5,56.6,34.5,56.6s-2.5,23.7-2.6,27.1c-0.1,3.5,1.3,26.5,6.9,40.4
		c6.8,17,22.8,57.8,22.3,69.4c-5.2,15.4-0.6,22.3-0.6,22.3h8c0,0,4.3,12.7,8.6,28.7l20.4,5.3l-5.3-9.4c0,0-11.8-39.5-15.8-48.7
		c-13.1-31-20.1-112.7-20.1-112.7c0-8.9,2.9-12.3,2.9-19.1c0-4.7-0.6-6.8-2.3-10.5c-2.9-6.2-4.7-17.5-9.4-34.8
		c-9.2-34.2-28.9-72.4-28.9-72.4s-11.3-24.6-36.6-1.8C44.8-53.4,39.5-47.2,39.5-46z"/>
	<path d="M69.5-95.3c0,0-1.8,2.6,5.2,23.7C83.3-45.6,80-23.3,80-23.3S45.4,53.9,44.3,57.8c-1.6,5.4,0,6.4-0.9,11.8
		c-0.9,5.2-7.6,13.2-9,17.8c-1.3,4.6-9.1,31.6-9.1,31.6S14,158,12.7,165.4c-5.9,33.7,0,47.6,1.7,55c2.6,11.6,3.5,16.8,3.5,16.8
		l1,8.7l-14.2-5.4c0,0-0.8-5-1.1-14.2c-0.3-9-4.5-15.6-4.5-15.6l-7.1-2.7c0,0-1,0.1,1.5-6.9c2.4-7,5.2-12.2,5.2-12.2
		s2.5-15.5,3.4-34c0.8-16.9,1.3-39.2,1.6-45.2c0.8-12.7,13-24,17.1-31.5c3.7-6.7,5.3-22.4,5.3-22.4s13.9-87.9,16-112.5
		C45.2-92.1,69.5-95.3,69.5-95.3z"/>
	<path d="M5,218.9c-1.5-4.8-6-10.7-7.3-14.8c-2.5-8-0.5-12.3-0.5-12.3s-6.1,8-7.4,16.1c0,0,5.1,4,4.7,27.3l1.1,0.6l1-0.4l-0.5-22.9
		c0,0,6.6,4.9,7.2,13.8c0.3,4.2-0.1,8.5-0.5,15.1c7.9,5.5,17.8,7.6,25.7,4.8c0,0,0.3-1.4-1.4-2.8c-1.4-1.1-6.3-1.3-8.9-3.9
		c0,0-0.7,4.1-6.8-1.6c-2.2-2-4.1-10.4-4.1-10.4S6.4,223.8,5,218.9z"/>
	<path d="M123.9,199.7c0,0-3.6,6.5-3.6,17.7c0,0,7.8,8.2,9.1,28.3l1.2,0.7l0.6-0.2l-3.1-23.5c0,0,0.7,0.8,2.3,2.3
		c1.5,1.5,4.4,7.8,7.7,28.3c0,0,6.5,8.4,29.4,6.3c0,0,0.5-2-0.8-3.3c-1.9-1.9-8.6-3.3-11.6-9.6c0,0,0,3-1.5,3c-1.8,0-5.9-0.5-11.1-4
		c-8-5.4-5.7-20.1-11.5-28.3C124.9,209,123.9,199.7,123.9,199.7z"/>
	<g>
		<path d="M74.8-73.6c0,0,1.2-10.1,0.7-18.2c-0.6-8.7-0.6-12,1.6-24.7c2.8-16,3.3-25.6,3.7-29.2c0,0,7.7-3.8,8.8-12.1
			c1-7.3-2.7-12.1-8.6-15.7c0,0-4.7-1.2-1.9-9.7c3.6-10.9-1.7-15.4-1.7-15.4s-0.3,0.1-1.1,0.2c-0.8,0.1-1.5,0.2-1.5,0.2
			s7.1,3.2,2.3,15.6c-3.1,8.1-5.5,19.7-5.5,19.7c-10.4-8.6-19.2-5.9-33.4-24.4c-3-3.9-9.1-8.7-9.1-8.7l-3.2-0.7
			c19.7,16.7,16.7,27.1,12.4,33.3c-4.6,6.6-3.8,9.8-3.8,9.8s8.3,7,12.7,21.6C54-110,43-103,43-103S19.2-87.3,27.2-61.6
			c22.3,71.4-31,78.8-31,78.8S9.9,18,20.4,20.8c11.3,3.1,26.1,7.2,29.5,1.8c6.7-10.6,56.4,33.6,69.1-8.7c1.4-4.7,3.2-3.4,3.2-3.4
			s-14.1-4.7-15-7.1C94.5-30.3,74.8-73.6,74.8-73.6z"/>
	</g>
	<g>
		<path d="M58.2-145.4c-1.2-4.9-11.8,0.2-17.5-15.9c-2.7,4-0.9,6.1-3.7,6.6c5.3,3.7,8.7,6.6,13.5,18.5c1.8,4.5,7,14.6,6.3,18.6
			c-0.7,4-2.3,8.6-16.4,25.2c-9,10.7-8.1,19.2-8.6,30.3C31-44,76.2,2.5,76.2,2.5s15.9,15.8-13,11c-10-0.1,32.3,21.3,32.3,11.7
			C95.6,4.1,18-59.7,37.4-83.6c14.5-17.8,24.3-18.9,21.2-33C52.4-144.5,59.3-140.5,58.2-145.4z"/>
	</g>
	<g>
		<path d="M10.8-197c2.3-0.9,5.6-2.1,15.3,0.3c0,0-0.1,22.5-1.4,27.1c-9.9,34.8-7.7,66.9-7.7,66.9s-4.9,12.5-29.8,49.7
			c-4.8,7.1-4.9,18.3-4.9,18.3l-6.3,8.3l-3.6,6.8l-1.8,5.1c0,0-2.3-2.9-1.5-5c0.8-2.1,3.1-8.3,3.1-8.3l2.1-3.6l-5.7,2.7l-4.8,1.2
			l-8.1,0.8l-1.8,3.8c0,0,2,1.4,2.1,3.3c0.1,1.6-3.2-0.8-3.2-0.8l-2.3-2.4l2.9-7l10.3-1.7l-11.3,1l-3.3,5.5c0,0,1.1,5-0.3,5.5
			c-1.5,0.5-1.6-2.7-1.6-2.7l-1.1-4l4.2-6.8l11.2-2.1L-49-33.9l-6.7,3.1c0,0-2.3,0.6-3.8,0.9c-1.5,0.4-1.9-1.1-1.9-1.1l5-1.5
			l7.1-4.1l9.1-1.3l-11.1-0.2c0,0-3.1-0.4-5.1-0.6c-2-0.2-2.4-1.2-2.4-1.2l7.4,0.1L-41-40l14.5-5l4.3-6.5c0,0,7.2-11.9,15.3-32.3
			c5.8-14.5,12.2-27.8,12.2-27.8s0.5-40.7,0.4-46.3C5.6-163.4,2.5-193.6,10.8-197z"/>
		<path d="M-27.7-20.1c0.4,0.1,0.3,1.6-0.2,3.2c-0.5,1.7-1.3,2.9-1.7,2.8c-0.4-0.1-0.3-1.6,0.2-3.2C-28.8-18.9-28.1-20.2-27.7-20.1z
			"/>
		<path d="M-45-20.2c-0.9-0.7-1.8-1-2-0.7c-0.2,0.3,0.4,1.1,1.3,1.7c0.9,0.7,1.8,1,2,0.7C-43.6-18.8-44.1-19.5-45-20.2z"/>
		<path d="M-51-20.8c-0.4-1-1-1.8-1.4-1.6c-0.3,0.1-0.2,1.1,0.2,2.1c0.4,1,1,1.8,1.3,1.6C-50.5-18.8-50.6-19.8-51-20.8z"/>
		<path d="M-60.1-31.7c-1,0.3-1.7,0.8-1.6,1.1c0.1,0.3,1,0.2,2-0.1c1-0.3,1.7-0.8,1.6-1.1C-58.2-32.1-59.1-32.1-60.1-31.7z"/>
		<path d="M-57.5-40.3c-0.8,0-1.5,0.1-1.5,0.3c0,0.2,0.7,0.3,1.5,0.3c0.8,0,1.5-0.1,1.5-0.3C-56-40.1-56.6-40.3-57.5-40.3z"/>
	</g>
	<g>
		<path d="M-79.6,34.5l-5.3,39l35.1,9.1C-58.1,59.7-69,39.4-79.6,34.5z"/>
		<path d="M-79.6,34.5c10.7,4.9,21.6,25.2,29.7,48.1l10.9,2.8l4.6-36.2c-9.1-8.4-23.3-18.6-44.8-18L-79.6,34.5z"/>
		<path d="M-29.3,9.1c-18.9-5.1-36.8,6.3-48,8.7l-0.7,5.3c17.9,1.2,34.9,1.3,46.2,6.6L-29.3,9.1z"/>
		<path d="M-79.2,31.4c21.5-0.7,35.7,9.5,44.8,18l1.1-8.3c-14-12.1-31.1-12.8-45.2-14.6L-79.2,31.4z"/>
		<path d="M-78.1,23.1l-0.5,3.3c14.1,1.7,31.2,2.5,45.2,14.6l1.4-11.3C-43.1,24.4-60.2,24.3-78.1,23.1z"/>
		<path d="M-29.3,9.1l1.1-9l-45.5-9l-3.7,26.8C-66.1,15.3-48.2,4-29.3,9.1z"/>
	</g>
	<ellipse transform="matrix(0.9247 -0.3807 0.3807 0.9247 42.0078 49.7945)" cx="146.9" cy="-81.3" rx="1" ry="1.3"/>
	<path d="M44.1-241.9c2.1,6.6,4.7,12.6,10.1,16c4.6,2.9,13.2,3.8,17.2,2.5c2.2-0.7,2.8-2,4.6-6.4c1.9-4.7,2.9-11,3.2-14.6
		c0.2-3.3-2.3-7-2.3-7c-0.1-3.2-1.6-9.1-1.6-9.1c-4-12.3-12.1-14.8-20.8-12C45.7-269.6,40.1-254.2,44.1-241.9z"/>
	<path d="M76.4-241.2c0,0,2.4-1.1,2.7-2.5c0.3-1.3-0.3-3.8-0.3-3.8S79.9-243.6,76.4-241.2z"/>
	<path d="M76.5-251.6c0,0,0.5-8-3.7-6.8c-3.5,1.1-6,4.1-6,4.1s0,2.8,0.6,5.2c1.1-1,1.9-2.1,4.2-2.8
		C73.9-252.5,76.5-251.6,76.5-251.6z"/>
	<path d="M59-247.1c0.3-2.4-0.5-4.8-0.5-4.8s-5.3-0.9-8.3-0.6c-3.3,0.3-4.1,3.2-4.2,4c-0.2,1,0.5,3.7,2.5,4.1
		C51.1-245.8,54.8-247.8,59-247.1z"/>
	<path d="M54.3-235.1c0,0-6.1,1.1-8.2-6.2l1.1,4.7C47.2-236.6,48.3-233.8,54.3-235.1z"/>
	<path d="M58.5-251.9c0,0-2,0-3.5-0.1c-2.3,0-5.8,0-6.8,0.4c-1.5,0.6-2.2,3.1-2.2,3.1s0.4-3.3,2.5-4c2.1-0.7,7.8-0.8,7.8-0.8
		S57.7-253.2,58.5-251.9z"/>
	<path d="M66.8-254.2c0,0,1.2-0.9,2.7-1.8c1.5-1,3.7-2.2,4.4-2.3c1.4-0.2,2.1,1.8,2.1,1.8s-0.4-2.8-2.3-2.4
		c-1.9,0.3-5.5,2.3-5.5,2.3S66.9-255.8,66.8-254.2z"/>
	<path d="M59-247.1c0,0-3.4-0.2-10.5,2.7c0,0,0.2-0.9,0.6-1.9c0.4-1.2,1.3-3,4-3.9C57.3-251.6,57.1-247.6,59-247.1z"/>
	<path d="M67.4-249c1.7-1.2,5.2-2.2,9.1-2.6c0,0-0.5-0.6-0.8-1.2c-0.7-1.3-1.8-2.8-4.5-1.9C67.3-253.3,68.7-250.2,67.4-249z"/>
	<g>
		<path d="M72.5-252.8c-0.1-0.3-0.4-0.6-0.6-0.8c0,0,0,0,0,0c0.6-0.1,1.2,0.1,1.6,0.3c0.8,0.5,1,1.5,1,1.5c-0.5,0.1-0.9,0.1-1.4,0.2
			c-0.3,0-0.6,0.1-0.8,0.2C72.5-251.9,72.6-252.4,72.5-252.8z"/>
		<path d="M70-250.9c-1.1,0.4-1.5,0.7-1.5,0.7c0.2-0.5,0.4-0.7,0.8-1.5C69.4-251.4,69.7-251.1,70-250.9z"/>
		<path d="M70-250.9c-0.3-0.2-0.6-0.5-0.8-0.8c0.2-0.4,0.4-0.7,0.7-1c0.4-0.4,1-0.8,1.9-0.9c0.2,0.2,0.5,0.5,0.6,0.8
			c0.1,0.5,0.1,0.9-0.1,1.3c-0.5,0.1-0.9,0.2-1.2,0.3C70.7-251.1,70.3-251,70-250.9z"/>
		<path d="M70-250.9c-0.3-0.2-0.6-0.5-0.8-0.8c0.2-0.4,0.4-0.7,0.7-1c0.4-0.4,1-0.8,1.9-0.9c0.2,0.2,0.5,0.5,0.6,0.8
			c0.1,0.5,0.1,0.9-0.1,1.3c-0.5,0.1-0.9,0.2-1.2,0.3C70.7-251.1,70.3-251,70-250.9z"/>
	</g>
	<path d="M70.3-251.9c0.2,0.3,0.7,0.4,1,0.1c0.3-0.2,0.4-0.7,0.1-1c-0.2-0.3-0.7-0.4-1-0.1C70.1-252.7,70-252.2,70.3-251.9z"/>
	<g>
		<path d="M54.7-248.3c-0.1-0.4-0.3-0.7-0.6-1c0.6-0.2,1.2-0.2,1.6-0.1c1,0.3,1.4,1.4,1.5,1.8c0,0-0.5,0-1.6,0.2
			c-0.3,0.1-0.7,0.1-1,0.2C54.7-247.5,54.8-247.9,54.7-248.3z"/>
		<path d="M52.3-246.5c-0.6,0.2-1.1,0.4-1.8,0.7c0,0,0.2-0.8,1-1.7C51.6-247,51.9-246.7,52.3-246.5z"/>
		<path d="M52.3-246.5c-0.4-0.2-0.7-0.6-0.8-1c0.2-0.2,0.4-0.5,0.7-0.7c0.5-0.4,1-0.7,1.7-1c0.1,0,0.1,0,0.2-0.1
			c0.3,0.2,0.5,0.6,0.6,1c0.1,0.4,0,0.9-0.2,1.2c-0.4,0.1-0.9,0.2-1.4,0.4C52.8-246.6,52.6-246.6,52.3-246.5z"/>
		<path d="M52.3-246.5c-0.4-0.2-0.7-0.6-0.8-1c0.2-0.2,0.4-0.5,0.7-0.7c0.5-0.4,1-0.7,1.7-1c0.1,0,0.1,0,0.2-0.1
			c0.3,0.2,0.5,0.6,0.6,1c0.1,0.4,0,0.9-0.2,1.2c-0.4,0.1-0.9,0.2-1.4,0.4C52.8-246.6,52.6-246.6,52.3-246.5z"/>
	</g>
	<path d="M52.5-247.5c0.2,0.3,0.7,0.4,1,0.2c0.3-0.2,0.4-0.7,0.2-1c-0.2-0.3-0.7-0.4-1-0.2C52.3-248.3,52.2-247.9,52.5-247.5z"/>
	<path d="M53.1-248c0.1,0.2-0.1,0.4-0.4,0.5c-0.3,0.1-0.6,0.1-0.6,0c-0.1-0.2,0.1-0.4,0.4-0.5C52.7-248.2,53-248.2,53.1-248z"/>
	<path d="M71-252.4c0.1,0.1-0.1,0.4-0.3,0.5c-0.3,0.1-0.5,0.1-0.6,0c-0.1-0.1,0.1-0.4,0.3-0.5C70.6-252.5,70.9-252.5,71-252.4z"/>
	<path d="M74-235.6c0.2,0.8-2.3,2.8-5.6,3.9c-3.3,1.1-6.7,0.8-6.9,0c-0.2-0.8,2.3-2.4,5.6-3.5C70.4-236.4,73.7-236.4,74-235.6z"/>
	<path d="M62.7-240c2.7-4.5,6-4.3,7-2.1C70.4-241,62.6-238.8,62.7-240z"/>
	<path d="M62.2-231c4.3,1.9,9.2,0.9,11.4-3.1c1-1.8,0.7-1.9-1.1-1c-0.8,0.4-1.9,1.1-4,1.7c-2.1,0.6-5.1,1.1-5.8,1.1
		C60.8-232.1,60.9-231.6,62.2-231z"/>
	<path d="M61.5-231.5c0,0-1-0.3-0.2-1.1c0.8-0.7,2.9-3.1,3.4-3.7c1.1-1.4,1.8-1,2.7-1.3c0.9-0.3,1.7-1,2.8-0.3
		c1,0.6,2.5,1.6,3.2,1.7c1,0.2,0.8,0.9,0.7,1.1c0,0-0.8,0.1-3.2-0.4c-1.3-0.3-4.5,0.9-5.7,1.8C64.1-232.9,62.9-231.8,61.5-231.5z"/>
	<path d="M71.8-229.5c0.2,0.5-0.7,0.5-2.1,1c-1.4,0.5-2.1,1-2.3,0.5c-0.2-0.5,0.4-1.5,1.8-1.9C70.6-230.4,71.6-230,71.8-229.5z"/>
	<path d="M68.6-237.6c0.7-0.2,1.2-0.1,1.2,0.1c0,0.2-0.5,0.1-1,0.3c-0.4,0.1-0.9,0.4-1.3,0.6c-0.5,0.1-0.8,0.1-1.2,0.2
		c-0.6,0.1-1.2,0.6-1.2,0.4c0-0.1,0.4-0.6,1-0.8c0.4-0.1,1-0.1,1.4-0.2C67.9-237.2,68.2-237.6,68.6-237.6z"/>
	<path d="M70.8-232.6c0.1,0.4-0.7,1.1-1.8,1.4c-1.1,0.4-2.2,0.3-2.3-0.1c-0.1-0.4,0.9-0.3,2.1-0.7C69.9-232.3,70.7-233,70.8-232.6z"
		/>
	<g>
		<path d="M72.5-270.2L55-281.7c-4.7-2.8-23.1,2.8-30.6,18.4c-4.9,10.2-5.1,20.6-4.3,26.1c3.7,25.4,15.1,33.7,15.1,33.7
			s-7.3-8.5-8.9-19.3c15.6,28.2,21.8,44.4,10.2,43.7c0,0,8.9,2.5,12.9-2.4c1.1-1.3,3.2-3.8,2.4-10.6c4.8,15.1-1.9,23.9-1.9,23.9
			c8.2-7.4,7.9-33.5,2.5-57.3c-2.5-11-7.3-15.6-6.6-21.3c0.6-4.5-0.3-7.9,3-11.6c5.5-6.2,10.9-5.5,16.3-10.8
			c6.2,0.3,9.2,6.7,9.2,6.7L72.5-270.2z"/>
	</g>
	<g>
		<path d="M55-276.1c-19.7,4.5-15.6,28.8-15.6,28.8C38-266.3,54.2-272,58.1-272.8c3.9-0.8,18.1-2.3,18.1,17.1
			C76.2-255.7,77.7-281.3,55-276.1z"/>
	</g>
	<g>
		<path d="M-35,83.1l5.4-3.1l5.1-40.9c-1.7-1.2-3.2-2.2-4.6-3L-35,83.1z"/>
		<path d="M-26.3,14.4L-29,36.1c1.4,0.8,2.9,1.8,4.6,3l2.9-23.1C-22.9,15.5-24.5,14.9-26.3,14.4z"/>
		<path d="M-19.2-3.2l-5,0.8l-2.1,16.7c1.8,0.5,3.4,1.1,4.7,1.6L-19.2-3.2z"/>
	</g>
</g>
</svg>
